<?xml version="1.0" encoding="utf-8"?>
<!-- Generator: Adobe Illustrator 22.1.0, SVG Export Plug-In . SVG Version: 6.00 Build 0)  -->
<svg version="1.1" id="Capa_1" xmlns="http://www.w3.org/2000/svg" xmlns:xlink="http://www.w3.org/1999/xlink" x="0px" y="0px"
	 viewBox="0 0 563.7 130.5" style="enable-background:new 0 0 563.7 130.5;" xml:space="preserve">
<style type="text/css">
	.st0{fill:none;}
	.st1{fill:url(#SVGID_1_);}
	.st2{fill:url(#SVGID_2_);}
	.st3{fill:url(#SVGID_3_);}
	.st4{fill:url(#SVGID_4_);}
	.st5{fill:url(#SVGID_5_);}
	.st6{fill:url(#SVGID_6_);}
	.st7{fill:url(#SVGID_7_);}
	.st8{fill:url(#SVGID_8_);}
	.st9{fill:url(#SVGID_9_);}
	.st10{fill:#2D4739;}
	.st11{fill:#989899;}
</style>
<g>
	<path class="st0" d="M59.3,38.9c-2.1-2.1-4.1-4-5.8-5.7C55.5,35.2,57.4,37.1,59.3,38.9z"/>
	<g>
		<linearGradient id="SVGID_1_" gradientUnits="userSpaceOnUse" x1="2.2116" y1="78.3576" x2="82.4256" y2="78.3576">
			<stop  offset="0" style="stop-color:#FFEDC2"/>
			<stop  offset="0.1767" style="stop-color:#F7EFA6"/>
			<stop  offset="0.3763" style="stop-color:#F4D16F"/>
			<stop  offset="0.4657" style="stop-color:#EFC75E"/>
			<stop  offset="0.5676" style="stop-color:#E4B650"/>
			<stop  offset="0.6237" style="stop-color:#B07120"/>
			<stop  offset="0.6528" style="stop-color:#B07120"/>
			<stop  offset="0.7152" style="stop-color:#F3D76C"/>
			<stop  offset="0.7921" style="stop-color:#F8E87E"/>
			<stop  offset="0.8441" style="stop-color:#F7F1A4"/>
			<stop  offset="0.8919" style="stop-color:#FFF3C6"/>
			<stop  offset="0.9376" style="stop-color:#E6AE06"/>
			<stop  offset="0.9439" style="stop-color:#E6AE06"/>
			<stop  offset="1" style="stop-color:#FBCB4B"/>
		</linearGradient>
		<path class="st1" d="M66.5,92.4c0,0-20-17.8-34.8-28.5c-0.6-0.5-1.3-0.9-1.9-1.3c0,0-18.7-13.3-23.6-37.2c0,0-15.4,29,13.8,51.6
			l11,7.1l24.4,15.7c0,0,18.4,11,22,30.9c1.6,0.2,3.1,0.4,4.7,0.5C83.3,120.8,81.2,106.7,66.5,92.4z"/>
		<linearGradient id="SVGID_2_" gradientUnits="userSpaceOnUse" x1="42.321" y1="132.0162" x2="42.321" y2="23.3894">
			<stop  offset="0" style="stop-color:#FFEDC2"/>
			<stop  offset="0.1767" style="stop-color:#F7EFA6"/>
			<stop  offset="0.3763" style="stop-color:#F4D16F"/>
			<stop  offset="0.4657" style="stop-color:#EFC75E"/>
			<stop  offset="0.5676" style="stop-color:#E4B650"/>
			<stop  offset="0.6237" style="stop-color:#B07120"/>
			<stop  offset="0.6528" style="stop-color:#B07120"/>
			<stop  offset="0.7152" style="stop-color:#F3D76C"/>
			<stop  offset="0.7921" style="stop-color:#F8E87E"/>
			<stop  offset="0.8441" style="stop-color:#F7F1A4"/>
			<stop  offset="0.8919" style="stop-color:#FFF3C6"/>
			<stop  offset="0.9376" style="stop-color:#E6AE06"/>
			<stop  offset="0.9439" style="stop-color:#E6AE06"/>
			<stop  offset="1" style="stop-color:#FBCB4B"/>
		</linearGradient>
		<path class="st2" d="M82.8,132l-0.7,0c-1.4-0.1-2.9-0.3-4.8-0.6l-0.5-0.1l-0.1-0.5c-3.5-19.3-21.4-30.3-21.6-30.4L19.7,77.6
			C4.3,65.7,1.3,52.1,1.5,42.8c0.2-10.1,3.9-17.3,4.1-17.6l0.9-1.7l0.4,1.9c4.8,23.4,23.2,36.6,23.3,36.8c0.6,0.4,1.2,0.9,1.9,1.3
			C46.8,73.9,66.8,91.7,67,91.9l0,0c12.2,11.8,17.5,25,15.9,39.4L82.8,132z M78,130.1c1.3,0.2,2.5,0.3,3.5,0.4
			c1.3-13.7-3.9-26.3-15.5-37.6c-0.6-0.5-20.3-18-34.7-28.4c-0.6-0.5-1.2-0.9-1.9-1.3C29.3,63.1,11.6,50.3,6,27.6
			C4.9,30.4,3,36,2.9,42.8C2.7,56,8.6,67.3,20.5,76.5l35.3,22.8C56,99.4,74.2,110.5,78,130.1z"/>
	</g>
	<g>
		<linearGradient id="SVGID_3_" gradientUnits="userSpaceOnUse" x1="-0.7764" y1="96.7707" x2="75.2244" y2="96.7707">
			<stop  offset="0" style="stop-color:#FFEDC2"/>
			<stop  offset="0.1767" style="stop-color:#F7EFA6"/>
			<stop  offset="0.3763" style="stop-color:#F4D16F"/>
			<stop  offset="0.4657" style="stop-color:#EFC75E"/>
			<stop  offset="0.5676" style="stop-color:#E4B650"/>
			<stop  offset="0.6237" style="stop-color:#B07120"/>
			<stop  offset="0.6528" style="stop-color:#B07120"/>
			<stop  offset="0.7152" style="stop-color:#F3D76C"/>
			<stop  offset="0.7921" style="stop-color:#F8E87E"/>
			<stop  offset="0.8441" style="stop-color:#F7F1A4"/>
			<stop  offset="0.8919" style="stop-color:#FFF3C6"/>
			<stop  offset="0.9376" style="stop-color:#E6AE06"/>
			<stop  offset="0.9439" style="stop-color:#E6AE06"/>
			<stop  offset="1" style="stop-color:#FBCB4B"/>
		</linearGradient>
		<path class="st3" d="M58.6,105.4c0,0-10.3-7.1-26.2-15.3C29,88.4,23.9,85.8,20,84c0,0-14.9-9.5-20.5-20.8c0,0-4.2,28.3,20.4,39.8
			l22.9,9.6c0,0,0.9,0.2,2.5,0.8c4.1,1.6,12.7,5.6,19.5,13.6c3.3,1.4,6.8,2.5,10.5,3.2C73.6,122.4,69.1,113.3,58.6,105.4z"/>
		<linearGradient id="SVGID_4_" gradientUnits="userSpaceOnUse" x1="37.3379" y1="131.2139" x2="37.3379" y2="60.9245">
			<stop  offset="0" style="stop-color:#FFEDC2"/>
			<stop  offset="0.1767" style="stop-color:#F7EFA6"/>
			<stop  offset="0.3763" style="stop-color:#F4D16F"/>
			<stop  offset="0.4657" style="stop-color:#EFC75E"/>
			<stop  offset="0.5676" style="stop-color:#E4B650"/>
			<stop  offset="0.6237" style="stop-color:#B07120"/>
			<stop  offset="0.6528" style="stop-color:#B07120"/>
			<stop  offset="0.7152" style="stop-color:#F3D76C"/>
			<stop  offset="0.7921" style="stop-color:#F8E87E"/>
			<stop  offset="0.8441" style="stop-color:#F7F1A4"/>
			<stop  offset="0.8919" style="stop-color:#FFF3C6"/>
			<stop  offset="0.9376" style="stop-color:#E6AE06"/>
			<stop  offset="0.9439" style="stop-color:#E6AE06"/>
			<stop  offset="1" style="stop-color:#FBCB4B"/>
		</linearGradient>
		<path class="st4" d="M76.1,131.2l-1-0.2c-3.6-0.7-7.2-1.8-10.6-3.2l-0.2-0.1l-0.1-0.1c-6.6-7.8-14.9-11.8-19.2-13.4
			c-1.5-0.6-2.4-0.8-2.4-0.8l-0.1,0l-22.9-9.6C-5.2,92-1.2,63.4-1.2,63.1l0.3-2.2l1,2c5.4,10.7,19.4,20,20.2,20.5
			c3.4,1.5,7.5,3.7,10.9,5.4l1.4,0.7c15.8,8.1,26.2,15.2,26.3,15.3l0,0c9.1,6.9,14.8,15.4,16.9,25.3L76.1,131.2z M65.2,126.6
			c2.9,1.2,6,2.2,9.1,2.9c-2.2-9.1-7.6-17-16.1-23.4c-0.4-0.3-10.7-7.3-26.2-15.2l-1.4-0.7c-3.4-1.7-7.5-3.9-10.9-5.4l-0.1,0
			C19.1,84.3,6.3,76,0,65.6c-0.3,6.9,0.4,27.5,20.2,36.8L43,112c0.2,0.1,1.1,0.3,2.5,0.8C49.9,114.5,58.4,118.6,65.2,126.6z"/>
	</g>
	<g>
		<linearGradient id="SVGID_5_" gradientUnits="userSpaceOnUse" x1="16.2773" y1="67.12" x2="92.8636" y2="67.12">
			<stop  offset="0" style="stop-color:#FFEDC2"/>
			<stop  offset="0.1767" style="stop-color:#F7EFA6"/>
			<stop  offset="0.3763" style="stop-color:#F4D16F"/>
			<stop  offset="0.4657" style="stop-color:#EFC75E"/>
			<stop  offset="0.5676" style="stop-color:#E4B650"/>
			<stop  offset="0.6237" style="stop-color:#B07120"/>
			<stop  offset="0.6528" style="stop-color:#B07120"/>
			<stop  offset="0.7152" style="stop-color:#F3D76C"/>
			<stop  offset="0.7921" style="stop-color:#F8E87E"/>
			<stop  offset="0.8441" style="stop-color:#F7F1A4"/>
			<stop  offset="0.8919" style="stop-color:#FFF3C6"/>
			<stop  offset="0.9376" style="stop-color:#E6AE06"/>
			<stop  offset="0.9439" style="stop-color:#E6AE06"/>
			<stop  offset="1" style="stop-color:#FBCB4B"/>
		</linearGradient>
		<path class="st5" d="M75.3,71.4c0,0-22.3-22-31.8-31.4c-1-1-1.9-1.9-2.5-2.6c0,0-20.5-22-17.2-34.6c0,0-21.7,25.9,8.8,55.1
			l0.6,0.6l31.9,28c0,0,21.6,16,19.1,44.8c0.6,0,1.3,0,1.9,0c0.8,0,1.6,0,2.4-0.1c0.1,0,0.1-0.1,0.2-0.1
			C94.3,117.7,97.8,94.7,75.3,71.4z"/>
		<linearGradient id="SVGID_6_" gradientUnits="userSpaceOnUse" x1="54.5989" y1="132.0888" x2="54.5989" y2="-9.094947e-13">
			<stop  offset="0" style="stop-color:#FFEDC2"/>
			<stop  offset="0.1767" style="stop-color:#F7EFA6"/>
			<stop  offset="0.3763" style="stop-color:#F4D16F"/>
			<stop  offset="0.4657" style="stop-color:#EFC75E"/>
			<stop  offset="0.5676" style="stop-color:#E4B650"/>
			<stop  offset="0.6237" style="stop-color:#B07120"/>
			<stop  offset="0.6528" style="stop-color:#B07120"/>
			<stop  offset="0.7152" style="stop-color:#F3D76C"/>
			<stop  offset="0.7921" style="stop-color:#F8E87E"/>
			<stop  offset="0.8441" style="stop-color:#F7F1A4"/>
			<stop  offset="0.8919" style="stop-color:#FFF3C6"/>
			<stop  offset="0.9376" style="stop-color:#E6AE06"/>
			<stop  offset="0.9439" style="stop-color:#E6AE06"/>
			<stop  offset="1" style="stop-color:#FBCB4B"/>
		</linearGradient>
		<path class="st6" d="M86.1,132.1c-0.6,0-1.3,0-1.9,0l-0.7,0l0.1-0.7c2.4-28.1-18.6-44-18.8-44.2L32.1,58.5
			C23.3,50,13.3,36.4,16,19.4c1.6-10.2,7-16.7,7.2-17l2-2.4l-0.8,3c-3.1,12,16.9,33.7,17.1,33.9c0.7,0.7,1.5,1.5,2.5,2.5
			c9.3,9.3,31.5,31.2,31.8,31.4l0,0C98,94,95.5,116.6,89.4,131.5l-0.1,0.2l-0.6,0.3l-0.1,0C87.7,132.1,86.9,132.1,86.1,132.1z
			 M85,130.7c1,0,2.1,0,3.3,0c5.8-14.5,8.1-36.4-13.4-58.8C74.3,71.4,52.3,49.7,43,40.5c-1-1-1.9-1.9-2.5-2.6
			c-0.8-0.9-18-19.4-17.8-32.3c-1.7,2.7-4.3,7.7-5.3,14.1c-2,13,3.4,26.1,15.6,37.8L65.6,86C65.7,86.2,87,102.3,85,130.7z"/>
	</g>
	<linearGradient id="SVGID_7_" gradientUnits="userSpaceOnUse" x1="116.1343" y1="65.6624" x2="121.173" y2="65.6624">
		<stop  offset="0" style="stop-color:#B37E11"/>
		<stop  offset="0.2151" style="stop-color:#E2BE57"/>
		<stop  offset="0.328" style="stop-color:#F9DE7C"/>
		<stop  offset="0.524" style="stop-color:#FEF2A6"/>
		<stop  offset="0.7298" style="stop-color:#F9DE7C"/>
		<stop  offset="1" style="stop-color:#B37E11"/>
	</linearGradient>
	<path class="st7" d="M121.2,66.7c0,0-2.1-2.5-5-2.5C116.1,64.2,118.2,68.4,121.2,66.7z"/>
	<g>
		<linearGradient id="SVGID_8_" gradientUnits="userSpaceOnUse" x1="53.5635" y1="74.0215" x2="141.7476" y2="74.0215">
			<stop  offset="0" style="stop-color:#BCA674"/>
			<stop  offset="0.3112" style="stop-color:#E8D194"/>
			<stop  offset="0.5273" style="stop-color:#E4CD91"/>
			<stop  offset="0.6664" style="stop-color:#D8C289"/>
			<stop  offset="0.7838" style="stop-color:#C4AF7B"/>
			<stop  offset="0.8891" style="stop-color:#AA9768"/>
			<stop  offset="0.9854" style="stop-color:#8A7B53"/>
			<stop  offset="1" style="stop-color:#857650"/>
		</linearGradient>
		<path class="st8" d="M141.7,75.2c0-29.9-24.2-54.1-54.1-54.1c-12.9,0-24.8,4.5-34.1,12.1c1.7,1.7,3.7,3.6,5.8,5.7
			c24.8,23.4,43,24.1,43,24.1c-8-5.2-4-16.7-4-16.7c0.7,12.3,11.9,11.4,11.9,11.4c13.6-2.2,17.7,8.6,17.7,8.6
			c0.4,0.2,0.8,0.5,1.2,0.8c4.8,3.6,9,12.6,9,12.6c-3.6-2.1-6.7-3.6-9.6-4.4c-5.3-1.6-9.4-1.2-12.6,0.4c-6.8,3.8-7.5,13.1-7.5,13.1
			c-1.2,20.2-3.2,31.7-5.1,38.3C125.5,120.3,141.7,99.6,141.7,75.2z"/>
		<linearGradient id="SVGID_9_" gradientUnits="userSpaceOnUse" x1="52.516" y1="74.1932" x2="142.4495" y2="74.1932">
			<stop  offset="0" style="stop-color:#FFEDC2"/>
			<stop  offset="0.1767" style="stop-color:#F7EFA6"/>
			<stop  offset="0.3763" style="stop-color:#F4D16F"/>
			<stop  offset="0.4657" style="stop-color:#EFC75E"/>
			<stop  offset="0.5676" style="stop-color:#E4B650"/>
			<stop  offset="0.6237" style="stop-color:#B07120"/>
			<stop  offset="0.6528" style="stop-color:#B07120"/>
			<stop  offset="0.7152" style="stop-color:#F3D76C"/>
			<stop  offset="0.7921" style="stop-color:#F8E87E"/>
			<stop  offset="0.8441" style="stop-color:#F7F1A4"/>
			<stop  offset="0.8919" style="stop-color:#FFF3C6"/>
			<stop  offset="0.9376" style="stop-color:#E6AE06"/>
			<stop  offset="0.9439" style="stop-color:#E6AE06"/>
			<stop  offset="1" style="stop-color:#FBCB4B"/>
		</linearGradient>
		<path class="st9" d="M102.3,128l0.4-1.2c2.4-8.1,4.1-21,5.1-38.1c0-0.4,0.8-9.8,7.8-13.7c3.7-1.8,8.1-2,13.1-0.5
			c2.4,0.7,5,1.8,7.7,3.3c-1.5-2.9-4.5-7.9-7.7-10.3c-0.4-0.3-0.7-0.5-1.1-0.7l-0.2-0.1l-0.1-0.2c-0.2-0.4-4-10.2-16.9-8.1
			c-0.3,0-5.1,0.4-8.7-2.8c-1.6-1.4-2.7-3.3-3.4-5.5c-0.1,0.8-0.2,1.8-0.2,2.7c0,4.4,1.6,7.7,4.7,9.7l2.2,1.4l-2.6-0.1
			c-0.8,0-18.7-1-43.4-24.3c-2.1-2.1-4.1-4.1-5.8-5.7l-0.6-0.6l0.6-0.5c9.7-7.9,22-12.2,34.5-12.2c30.2,0,54.8,24.6,54.8,54.8
			c0,12-3.8,23.4-11,33c-7,9.2-16.9,16.2-27.9,19.5L102.3,128z M122.2,74.8c-2.2,0-4.2,0.5-6,1.3c-6.3,3.5-7.1,12.4-7.1,12.5
			c-1,16.4-2.6,28.9-4.8,37.2c10.3-3.4,19.4-9.9,26-18.6c7-9.3,10.7-20.4,10.7-32.1c0-29.4-24-53.4-53.4-53.4
			c-12,0-23.7,4.1-33,11.4c1.6,1.5,3.3,3.3,5.2,5.2C79,56.5,94.3,60.9,99.9,61.9c-2.2-2.3-3.3-5.4-3.4-9.3c0-3.6,1-6.5,1-6.7
			l1.2-3.4l0.2,3.5c0.2,3.6,1.4,6.4,3.5,8.2c3.2,2.8,7.6,2.5,7.6,2.5c12.8-2.1,17.5,7.1,18.3,8.8c0.3,0.2,0.7,0.4,1,0.7
			c4.9,3.6,9,12.5,9.2,12.9l1,2.1l-2-1.2c-3.3-2-6.5-3.5-9.4-4.4C126.1,75.2,124.1,74.8,122.2,74.8z"/>
	</g>
</g>
<g>
	<path class="st10" d="M191.5,70.7c0,1.8-0.3,3.3-0.8,4.6c-0.5,1.3-1.3,2.4-2.3,3.2c-1,0.9-2.1,1.5-3.5,2c-1.3,0.4-2.8,0.7-4.5,0.8
		c-0.5,0-1.4,0-2.7,0s-2.7,0-4.3,0c-1.5,0-3,0-4.5-0.1c-1.5,0-2.7,0-3.5-0.1c-0.1-0.8-0.2-1.5-0.3-2.1c-0.1-0.6-0.1-1.2-0.2-1.8
		c0-0.6-0.1-1.2-0.1-1.7V46c0.8,0,1.8,0,2.9,0c1.2,0,2.3,0,3.5,0c1.2,0,2.4,0,3.5,0c1.1,0,2.1,0,2.8,0c1.8,0,3.4,0.2,5,0.5
		c1.5,0.3,2.9,0.9,4,1.6c1.1,0.7,2,1.7,2.6,2.8c0.6,1.2,0.9,2.6,0.9,4.3c0,1.9-0.5,3.4-1.6,4.6c-1.1,1.2-2.4,2.1-3.9,2.7
		c0.6,0.1,1.3,0.4,2.1,0.7c0.8,0.3,1.5,0.8,2.2,1.5c0.7,0.6,1.3,1.5,1.8,2.5C191.2,68,191.5,69.2,191.5,70.7z M181.2,56
		c0-2.7-1.5-4-4.3-4c-0.7,0-1.5,0-2.6,0.1v7.7c0.9,0.1,1.5,0.1,1.9,0.1c1.1,0,2-0.1,2.7-0.4c0.7-0.3,1.2-0.6,1.5-1
		c0.4-0.4,0.6-0.8,0.7-1.3C181.1,56.9,181.2,56.4,181.2,56z M182.2,70.2c0-0.9-0.2-1.7-0.5-2.3c-0.3-0.6-0.7-1.1-1.3-1.5
		c-0.5-0.4-1.1-0.6-1.7-0.8c-0.6-0.1-1.3-0.2-1.9-0.2c-0.5,0-1.4,0-2.6,0v9.6c0.3,0,0.7,0,1.2,0s1,0,1.5,0c1.1,0,1.9-0.1,2.6-0.4
		c0.7-0.3,1.2-0.7,1.6-1.1c0.4-0.5,0.7-1,0.8-1.6C182.1,71.5,182.2,70.9,182.2,70.2z"/>
	<path class="st10" d="M213.7,81.8c0,0-0.2-0.1-0.5-0.3c-0.3-0.2-0.7-0.5-1.1-1s-0.7-1.1-0.8-1.8c-0.4,0.3-0.8,0.7-1.2,1.1
		c-0.4,0.4-0.9,0.7-1.4,1.1c-0.6,0.3-1.2,0.6-1.9,0.8c-0.7,0.2-1.5,0.3-2.5,0.3c-2.5,0-4.5-0.7-6-2c-1.5-1.3-2.2-3.5-2.2-6.4V57
		l8.8-1.3v16.6c0,0.5,0,1,0.1,1.5s0.2,0.8,0.3,1.2c0.2,0.3,0.4,0.6,0.7,0.8c0.3,0.2,0.7,0.3,1.2,0.3c0.8,0,1.5-0.3,2.1-0.9
		c0.6-0.6,1.1-1.3,1.5-2V56.9l8.8-1.1V76l0.9,4.4L213.7,81.8z"/>
	<path class="st10" d="M247.6,66.7c0,0.5,0,1.1-0.1,1.9c-0.1,0.8-0.1,1.5-0.2,1.9c-2.8,0.3-5.4,0.5-7.8,0.5h-7v0.8
		c0,0.5,0.1,1,0.2,1.5c0.1,0.5,0.4,1,0.7,1.5c0.3,0.5,0.8,0.8,1.4,1.1c0.6,0.3,1.4,0.4,2.3,0.4c1.3,0,2.6-0.3,3.8-0.8
		c1.2-0.5,2.4-1,3.7-1.7l1.5,5.6c-1.9,0.9-3.5,1.5-5,1.9c-1.5,0.4-3.1,0.6-4.8,0.6c-1.7,0-3.2-0.3-4.7-0.8c-1.5-0.5-2.8-1.3-3.9-2.4
		c-1.1-1.1-2-2.4-2.6-4c-0.7-1.6-1-3.4-1-5.6c0-2.1,0.3-4,0.9-5.7c0.6-1.7,1.5-3.1,2.5-4.3c1.1-1.2,2.4-2.1,3.9-2.7
		c1.5-0.6,3.2-0.9,5-0.9c1.6,0,3.1,0.3,4.5,0.8c1.4,0.5,2.5,1.3,3.5,2.2c1,1,1.8,2.1,2.3,3.5C247.3,63.6,247.6,65.1,247.6,66.7z
		 M238.8,62.4c-0.6-0.8-1.5-1.2-2.6-1.2c-0.6,0-1.1,0.1-1.5,0.4c-0.5,0.3-0.8,0.6-1.1,1c-0.3,0.4-0.5,0.9-0.6,1.5
		c-0.1,0.5-0.2,1.1-0.2,1.6h6.8C239.6,64.3,239.4,63.2,238.8,62.4z"/>
	<path class="st10" d="M267.5,81.3c-0.1-0.8-0.2-1.5-0.3-2.1c-0.1-0.6-0.1-1.2-0.2-1.8c-0.1-0.6-0.1-1.1-0.1-1.5v-9.8
		c0-0.5,0-1,0-1.5c0-0.5,0-1-0.1-1.4c-0.1-0.4-0.2-0.8-0.4-1c-0.2-0.3-0.6-0.4-1-0.4c-0.6,0-1.3,0.3-2.1,0.8
		c-0.8,0.5-1.7,1.3-2.5,2.2v16.6h-8.1c-0.1-0.9-0.2-1.6-0.3-2.2c-0.1-0.6-0.2-1.2-0.2-1.8c-0.1-0.6-0.1-1.1-0.1-1.4V61.3l-0.9-3.9
		l8.4-1.3c0.7,1,1.1,2,1.2,3.2c1.2-0.9,2.5-1.8,4-2.5c1.5-0.7,2.9-1,4.3-1c2.3,0,4,0.7,5.1,2.1c1.1,1.4,1.6,3.3,1.6,5.7v17.6H267.5z
		"/>
	<path class="st10" d="M295.8,81.8c0,0-0.1-0.2-0.3-0.5c-0.2-0.3-0.4-0.7-0.7-1.2c-0.3-0.5-0.5-1-0.6-1.6c-0.3,0.4-0.7,0.8-1.1,1.2
		c-0.4,0.4-0.9,0.8-1.5,1.1c-0.6,0.3-1.2,0.6-1.8,0.8c-0.7,0.2-1.4,0.3-2.2,0.3c-1.2,0-2.2-0.2-3.2-0.6c-1-0.4-1.8-1-2.5-1.6
		c-0.7-0.7-1.2-1.5-1.6-2.5c-0.4-1-0.6-2.1-0.6-3.2c0-1.6,0.3-2.9,1-4c0.7-1.1,1.6-2,2.7-2.7c1.1-0.7,2.4-1.2,3.8-1.5
		c1.4-0.3,2.9-0.5,4.4-0.5c0.3,0,0.7,0,1.1,0s0.8,0.1,1.1,0.1v-1.8c0-0.8-0.2-1.4-0.5-1.8c-0.4-0.4-1-0.6-1.8-0.6
		c-1,0-2.3,0.3-3.9,0.8c-1.6,0.5-3.3,1.2-5.1,2.1l-1.7-5.2c2.7-1.2,5-2.1,7-2.5c2-0.4,3.7-0.7,5.2-0.7c1.2,0,2.3,0.1,3.4,0.3
		c1.1,0.2,2.1,0.6,2.9,1.1c0.8,0.5,1.5,1.2,2,2s0.8,1.9,0.8,3.1V76l0.9,4.4L295.8,81.8z M294,70c-0.2,0-0.5-0.1-0.9-0.1
		c-0.4,0-0.7,0-0.9,0c-1.2,0-2.3,0.3-3.1,0.9c-0.8,0.6-1.3,1.5-1.3,2.8c0,0.9,0.2,1.5,0.7,2s1.1,0.7,1.8,0.7c0.8,0,1.5-0.3,2.1-0.8
		s1.1-1.2,1.5-1.9V70z"/>
	<path class="st10" d="M329.5,60.6l-7.4,20.7h-9c0-0.1-0.2-0.3-0.4-0.7c-0.2-0.4-0.5-1-0.9-1.8c-0.3-0.8-0.7-1.6-0.9-2.4l-6.1-19.4
		l8.3-1.3c0,0,0.1,0.1,0.3,0.3c0.2,0.2,0.4,0.7,0.7,1.5c0.3,0.8,0.6,1.8,0.9,3.2l2.2,9.5c0.1,0.5,0.2,1.1,0.3,1.8
		c0.1,0.7,0.3,1.3,0.3,1.8c0.1,0.5,0.2,0.8,0.2,0.8c0.2-0.7,0.3-1.4,0.4-1.9c0.1-0.5,0.2-1,0.4-1.5c0.1-0.5,0.2-0.9,0.3-1.2
		l3.8-13.9h7.8C330.4,57.6,330,59.1,329.5,60.6z"/>
	<path class="st10" d="M355.4,66.7c0,0.5,0,1.1-0.1,1.9c-0.1,0.8-0.1,1.5-0.2,1.9c-2.8,0.3-5.4,0.5-7.8,0.5h-7v0.8
		c0,0.5,0.1,1,0.2,1.5c0.1,0.5,0.4,1,0.7,1.5c0.3,0.5,0.8,0.8,1.4,1.1c0.6,0.3,1.4,0.4,2.3,0.4c1.3,0,2.6-0.3,3.8-0.8
		c1.2-0.5,2.4-1,3.7-1.7l1.5,5.6c-1.9,0.9-3.5,1.5-5,1.9c-1.5,0.4-3.1,0.6-4.8,0.6c-1.7,0-3.2-0.3-4.7-0.8c-1.5-0.5-2.8-1.3-3.9-2.4
		c-1.1-1.1-2-2.4-2.6-4c-0.7-1.6-1-3.4-1-5.6c0-2.1,0.3-4,0.9-5.7c0.6-1.7,1.5-3.1,2.5-4.3c1.1-1.2,2.4-2.1,3.9-2.7
		c1.5-0.6,3.2-0.9,5-0.9c1.6,0,3.1,0.3,4.5,0.8c1.4,0.5,2.5,1.3,3.5,2.2c1,1,1.8,2.1,2.3,3.5C355.1,63.6,355.4,65.1,355.4,66.7z
		 M346.6,62.4c-0.6-0.8-1.5-1.2-2.6-1.2c-0.6,0-1.1,0.1-1.5,0.4c-0.5,0.3-0.8,0.6-1.1,1c-0.3,0.4-0.5,0.9-0.6,1.5
		c-0.1,0.5-0.2,1.1-0.2,1.6h6.8C347.5,64.3,347.2,63.2,346.6,62.4z"/>
	<path class="st10" d="M375.4,81.3c-0.1-0.8-0.2-1.5-0.3-2.1c-0.1-0.6-0.1-1.2-0.2-1.8c-0.1-0.6-0.1-1.1-0.1-1.5v-9.8
		c0-0.5,0-1,0-1.5c0-0.5,0-1-0.1-1.4c-0.1-0.4-0.2-0.8-0.4-1c-0.2-0.3-0.6-0.4-1-0.4c-0.6,0-1.3,0.3-2.1,0.8
		c-0.8,0.5-1.7,1.3-2.5,2.2v16.6h-8.1c-0.1-0.9-0.2-1.6-0.3-2.2c-0.1-0.6-0.2-1.2-0.2-1.8c-0.1-0.6-0.1-1.1-0.1-1.4V61.3l-0.9-3.9
		l8.4-1.3c0.7,1,1.1,2,1.2,3.2c1.2-0.9,2.5-1.8,4-2.5c1.5-0.7,2.9-1,4.3-1c2.3,0,4,0.7,5.1,2.1c1.1,1.4,1.6,3.3,1.6,5.7v17.6H375.4z
		"/>
	<path class="st10" d="M404,61.9h-4.9v10c0,1.2,0.2,2,0.7,2.6c0.4,0.5,1.1,1,2.1,1.3l1.9,0.7l-3.2,5.3c-1.4,0-2.7-0.1-3.9-0.2
		c-1.2-0.1-2.3-0.4-3.3-0.8c-0.9-0.4-1.7-0.9-2.3-1.6c-0.6-0.7-0.9-1.7-0.9-2.8V61.9h-3.9v-5.4h4.1v-7.8l7.5-1.3
		c0.2,0.8,0.3,1.4,0.4,2s0.2,1.1,0.3,1.7c0.1,0.6,0.1,1.1,0.1,1.4v4h5.5L404,61.9z"/>
	<path class="st10" d="M424.9,81.8c0,0-0.2-0.1-0.5-0.3c-0.3-0.2-0.7-0.5-1.1-1s-0.7-1.1-0.8-1.8c-0.4,0.3-0.8,0.7-1.2,1.1
		c-0.4,0.4-0.9,0.7-1.4,1.1c-0.6,0.3-1.2,0.6-1.9,0.8c-0.7,0.2-1.5,0.3-2.5,0.3c-2.5,0-4.5-0.7-6-2c-1.5-1.3-2.2-3.5-2.2-6.4V57
		l8.8-1.3v16.6c0,0.5,0,1,0.1,1.5s0.2,0.8,0.3,1.2c0.2,0.3,0.4,0.6,0.7,0.8c0.3,0.2,0.7,0.3,1.2,0.3c0.8,0,1.5-0.3,2.1-0.9
		c0.6-0.6,1.1-1.3,1.5-2V56.9l8.8-1.1V76l0.9,4.4L424.9,81.8z"/>
	<path class="st10" d="M453.1,64.2c-0.6-0.4-1.1-0.7-1.5-1c-0.5-0.3-1-0.4-1.7-0.4c-0.8,0-1.7,0.3-2.5,0.8c-0.8,0.5-1.5,1.2-2,1.9
		v15.8h-8.2c-0.1-0.7-0.2-1.4-0.3-1.9c-0.1-0.5-0.1-1.1-0.2-1.7c-0.1-0.6-0.1-1.2-0.1-1.7V61.9l-1.2-4.5l8.5-1.1
		c0.7,1.2,1.1,2.3,1.3,3c1.4-1.3,2.6-2.2,3.6-2.6s2-0.7,2.9-0.7c0.8,0,1.5,0.1,2.2,0.4c0.7,0.3,1.3,0.6,1.7,0.9L453.1,64.2z"/>
	<path class="st10" d="M471.7,81.8c0,0-0.1-0.2-0.3-0.5c-0.2-0.3-0.4-0.7-0.7-1.2c-0.3-0.5-0.5-1-0.6-1.6c-0.3,0.4-0.7,0.8-1.1,1.2
		c-0.4,0.4-0.9,0.8-1.5,1.1c-0.6,0.3-1.2,0.6-1.8,0.8c-0.7,0.2-1.4,0.3-2.2,0.3c-1.2,0-2.2-0.2-3.2-0.6c-1-0.4-1.8-1-2.5-1.6
		c-0.7-0.7-1.2-1.5-1.6-2.5c-0.4-1-0.6-2.1-0.6-3.2c0-1.6,0.3-2.9,1-4c0.7-1.1,1.6-2,2.7-2.7c1.1-0.7,2.4-1.2,3.8-1.5
		c1.4-0.3,2.9-0.5,4.4-0.5c0.3,0,0.7,0,1.1,0s0.8,0.1,1.1,0.1v-1.8c0-0.8-0.2-1.4-0.5-1.8c-0.4-0.4-1-0.6-1.8-0.6
		c-1,0-2.3,0.3-3.9,0.8c-1.6,0.5-3.3,1.2-5.1,2.1l-1.7-5.2c2.7-1.2,5-2.1,7-2.5c2-0.4,3.7-0.7,5.2-0.7c1.2,0,2.3,0.1,3.4,0.3
		c1.1,0.2,2.1,0.6,2.9,1.1c0.8,0.5,1.5,1.2,2,2s0.8,1.9,0.8,3.1V76l0.9,4.4L471.7,81.8z M469.9,70c-0.2,0-0.5-0.1-0.9-0.1
		c-0.4,0-0.7,0-0.9,0c-1.2,0-2.3,0.3-3.1,0.9c-0.8,0.6-1.3,1.5-1.3,2.8c0,0.9,0.2,1.5,0.7,2s1.1,0.7,1.8,0.7c0.8,0,1.5-0.3,2.1-0.8
		s1.1-1.2,1.5-1.9V70z"/>
	<path class="st10" d="M482.4,81.3v-7.7h9.8v7.7H482.4z"/>
	<path class="st10" d="M511,61.9h-4.9v10c0,1.2,0.2,2,0.7,2.6c0.4,0.5,1.1,1,2.1,1.3l1.9,0.7l-3.2,5.3c-1.4,0-2.7-0.1-3.9-0.2
		c-1.2-0.1-2.3-0.4-3.3-0.8c-0.9-0.4-1.7-0.9-2.3-1.6c-0.6-0.7-0.9-1.7-0.9-2.8V61.9h-3.9v-5.4h4.1v-7.8l7.5-1.3
		c0.2,0.8,0.3,1.4,0.4,2s0.2,1.1,0.3,1.7c0.1,0.6,0.1,1.1,0.1,1.4v4h5.5L511,61.9z"/>
	<path class="st10" d="M528.5,81.8c0,0-0.1-0.2-0.3-0.5c-0.2-0.3-0.4-0.7-0.7-1.2c-0.3-0.5-0.5-1-0.6-1.6c-0.3,0.4-0.7,0.8-1.1,1.2
		c-0.4,0.4-0.9,0.8-1.5,1.1c-0.6,0.3-1.2,0.6-1.8,0.8c-0.7,0.2-1.4,0.3-2.2,0.3c-1.2,0-2.2-0.2-3.2-0.6c-1-0.4-1.8-1-2.5-1.6
		c-0.7-0.7-1.2-1.5-1.6-2.5c-0.4-1-0.6-2.1-0.6-3.2c0-1.6,0.3-2.9,1-4c0.7-1.1,1.6-2,2.7-2.7c1.1-0.7,2.4-1.2,3.8-1.5
		c1.4-0.3,2.9-0.5,4.4-0.5c0.3,0,0.7,0,1.1,0s0.8,0.1,1.1,0.1v-1.8c0-0.8-0.2-1.4-0.5-1.8c-0.4-0.4-1-0.6-1.8-0.6
		c-1,0-2.3,0.3-3.9,0.8c-1.6,0.5-3.3,1.2-5.1,2.1l-1.7-5.2c2.7-1.2,5-2.1,7-2.5c2-0.4,3.7-0.7,5.2-0.7c1.2,0,2.3,0.1,3.4,0.3
		c1.1,0.2,2.1,0.6,2.9,1.1c0.8,0.5,1.5,1.2,2,2s0.8,1.9,0.8,3.1V76l0.9,4.4L528.5,81.8z M526.7,70c-0.2,0-0.5-0.1-0.9-0.1
		c-0.4,0-0.7,0-0.9,0c-1.2,0-2.3,0.3-3.1,0.9c-0.8,0.6-1.3,1.5-1.3,2.8c0,0.9,0.2,1.5,0.7,2s1.1,0.7,1.8,0.7c0.8,0,1.5-0.3,2.1-0.8
		s1.1-1.2,1.5-1.9V70z"/>
	<path class="st10" d="M561.5,60.3l-5.8,8l7.5,13h-8.7c-0.4-0.4-0.8-0.8-1.1-1.2s-0.6-0.8-1-1.4c-0.3-0.5-0.7-1.1-1-1.7l-1.8-3.7
		l-3.8,8h-8.3c0-0.1,0.1-0.3,0.3-0.8c0.1-0.4,0.4-1.1,0.8-1.9c0.4-0.8,0.8-1.6,1.4-2.4l5-7.2l-7-11.9l8.1-1.4c0,0.1,0.2,0.3,0.5,0.6
		c0.3,0.4,0.7,0.9,1.2,1.6c0.5,0.7,0.9,1.4,1.2,2.1l2,4.3l4.1-8.2h8.5C563,57.9,562.3,59.3,561.5,60.3z"/>
</g>
<g>
	<path class="st11" d="M165.9,109.4c0-0.2-0.1-0.5-0.1-0.6c0-0.2,0-0.4-0.1-0.6c0-0.2,0-0.4,0-0.6v-9.5h2.9c0,0,0,0.1,0,0.3
		c0,0.2,0.1,0.4,0.1,0.7c0,0.3,0,0.5,0,0.8v9.6H165.9z"/>
	<path class="st11" d="M186.3,109.4c-0.1-0.1-0.3-0.3-0.4-0.4c-0.1-0.1-0.2-0.3-0.4-0.5c-0.1-0.2-0.3-0.4-0.4-0.6l-2.3-3.8
		c-0.1-0.2-0.3-0.4-0.4-0.6c-0.1-0.2-0.2-0.4-0.3-0.5s-0.1-0.2-0.1-0.2c0,0,0,0.1,0,0.3c0,0.2,0,0.4,0,0.6s0,0.5,0,0.7v5h-2.3
		c0-0.2-0.1-0.5-0.1-0.6c0-0.2,0-0.4-0.1-0.6c0-0.2,0-0.4,0-0.6v-9.5h2.4c0.2,0.2,0.3,0.3,0.5,0.5c0.1,0.1,0.3,0.3,0.4,0.5
		s0.3,0.4,0.4,0.6l2.4,3.8c0.1,0.1,0.2,0.3,0.3,0.5c0.1,0.2,0.2,0.4,0.2,0.5c0.1,0.1,0.1,0.2,0.1,0.2c0,0,0-0.1,0-0.3
		c0-0.2,0-0.4,0-0.6c0-0.3,0-0.5,0-0.8v-4.9h2.3c0,0,0,0.1,0,0.3c0,0.2,0.1,0.4,0.1,0.7c0,0.3,0,0.5,0,0.8v9.6H186.3z"/>
	<path class="st11" d="M205.8,109.3c-0.6,0.2-1.1,0.2-1.7,0.2c-0.6,0-1.2-0.1-1.8-0.3s-1.1-0.5-1.6-1c-0.5-0.5-0.8-1-1.1-1.8
		c-0.3-0.7-0.4-1.6-0.4-2.6c0-0.9,0.1-1.8,0.4-2.5c0.3-0.7,0.6-1.4,1.1-1.9c0.5-0.5,1-0.9,1.7-1.2c0.7-0.3,1.4-0.4,2.2-0.4
		c0.5,0,1,0.1,1.5,0.2c0.5,0.1,1,0.3,1.4,0.5l-0.5,2c-0.4-0.2-0.7-0.3-1-0.4c-0.3-0.1-0.7-0.2-1-0.2c-0.5,0-0.9,0.1-1.2,0.3
		c-0.3,0.2-0.6,0.5-0.8,0.9s-0.4,0.8-0.5,1.3c-0.1,0.5-0.1,1-0.1,1.5c0,1.2,0.2,2.1,0.6,2.7s1,0.9,1.7,0.9c0.5,0,0.9-0.1,1.3-0.2
		c0.4-0.2,0.8-0.4,1.3-0.7l0.5,1.9C207,108.9,206.4,109.2,205.8,109.3z"/>
	<path class="st11" d="M228,103.6c0,1-0.2,1.9-0.5,2.7s-0.8,1.4-1.4,1.9s-1.1,0.9-1.8,1.1c-0.7,0.2-1.3,0.4-1.9,0.4
		c-0.7,0-1.4-0.1-2.1-0.3c-0.7-0.2-1.3-0.6-1.8-1.1c-0.5-0.5-0.9-1.1-1.2-1.9c-0.3-0.8-0.5-1.7-0.5-2.7c0-1,0.2-1.9,0.5-2.6
		c0.3-0.7,0.8-1.3,1.3-1.8c0.5-0.5,1.1-0.8,1.8-1s1.3-0.3,2-0.3c0.8,0,1.6,0.1,2.3,0.3s1.3,0.6,1.8,1.1s0.9,1.1,1.1,1.8
		C227.9,101.8,228,102.6,228,103.6z M225,103.6c0-1.2-0.2-2.2-0.7-2.8s-1.1-1-1.9-1c-0.8,0-1.4,0.3-1.8,1s-0.7,1.6-0.7,2.7
		c0,0.5,0.1,1.1,0.2,1.5c0.1,0.5,0.3,0.9,0.5,1.3c0.2,0.4,0.5,0.6,0.8,0.8c0.3,0.2,0.7,0.3,1.1,0.3c0.4,0,0.8-0.1,1.1-0.3
		s0.6-0.5,0.8-0.8s0.4-0.8,0.5-1.3C224.9,104.7,225,104.2,225,103.6z"/>
	<path class="st11" d="M247.3,109.4c0-0.2-0.1-0.4-0.1-0.5c0-0.2-0.1-0.4-0.1-0.6c0-0.2-0.1-0.4-0.1-0.7l-0.3-2.3
		c0-0.2,0-0.4-0.1-0.7c0-0.3-0.1-0.5-0.1-0.8c0-0.2-0.1-0.5-0.1-0.9c-0.1,0.4-0.2,0.7-0.3,1c-0.1,0.3-0.2,0.6-0.2,0.9
		c-0.1,0.3-0.2,0.6-0.2,0.8l-0.9,3.1h-2.1c0,0,0-0.1-0.1-0.2s-0.1-0.3-0.2-0.5c-0.1-0.2-0.2-0.4-0.2-0.6l-0.6-1.8
		c-0.1-0.2-0.1-0.4-0.2-0.7c-0.1-0.3-0.1-0.6-0.2-0.9c-0.1-0.3-0.2-0.6-0.2-1c0,0.3-0.1,0.6-0.1,0.8s0,0.5-0.1,0.7
		c0,0.3-0.1,0.5-0.1,0.7l-0.4,4.2h-2.1c0-0.2,0-0.5,0-0.6c0-0.2,0-0.4,0-0.6c0-0.2,0-0.4,0-0.6l1.1-9.5h2.5c0.1,0.2,0.2,0.4,0.3,0.6
		c0.1,0.2,0.2,0.3,0.3,0.6c0.1,0.2,0.2,0.4,0.2,0.6l1,3.4c0,0.1,0.1,0.3,0.1,0.6c0.1,0.2,0.1,0.5,0.2,0.7c0.1,0.3,0.1,0.6,0.2,0.9
		c0.1-0.4,0.2-0.7,0.3-0.9c0.1-0.2,0.1-0.5,0.2-0.7c0.1-0.2,0.1-0.4,0.2-0.6l1.6-5.1h2.4c0,0,0,0.1,0.1,0.3c0,0.2,0.1,0.4,0.2,0.6
		c0.1,0.3,0.1,0.5,0.1,0.8l1.1,9.6H247.3z"/>
	<path class="st11" d="M268.1,100.1h-4.2v2.3h3.7v2.1h-3.7v2.8h4.4v2.1H261c0-0.2-0.1-0.5-0.1-0.6c0-0.2,0-0.4-0.1-0.6
		c0-0.2,0-0.4,0-0.6v-9.5h7.5L268.1,100.1z"/>
	<path class="st11" d="M299.4,100.1h-2.9v9.2h-2.9c0-0.2-0.1-0.5-0.1-0.6c0-0.2,0-0.4-0.1-0.6c0-0.2,0-0.4,0-0.6v-7.4h-3.1v-2.1h9.4
		L299.4,100.1z"/>
	<path class="st11" d="M314.8,109.4c0,0-0.1-0.1-0.1-0.2s-0.2-0.3-0.3-0.5s-0.2-0.4-0.2-0.6l-0.4-1.3h-3l-0.8,2.7h-2.8
		c0.1-0.3,0.1-0.5,0.2-0.7c0.1-0.2,0.1-0.4,0.2-0.6c0.1-0.2,0.1-0.4,0.2-0.5l3.3-9.5h2.7c0.1,0.2,0.2,0.4,0.3,0.5
		c0.1,0.2,0.2,0.3,0.2,0.5c0.1,0.2,0.2,0.4,0.2,0.6l3.3,9.7H314.8z M312.7,102.8c0-0.1-0.1-0.3-0.1-0.5c0-0.2-0.1-0.4-0.2-0.6
		c-0.1-0.2-0.1-0.5-0.2-0.8c-0.1,0.3-0.1,0.6-0.2,0.8c-0.1,0.2-0.1,0.4-0.2,0.6c-0.1,0.2-0.1,0.4-0.1,0.5l-0.6,2h2.1L312.7,102.8z"
		/>
	<path class="st11" d="M336.4,98.6c-0.1,0.2-0.2,0.3-0.3,0.5c-0.1,0.2-0.2,0.4-0.3,0.6l-2.3,3.8l2.9,5.8h-3
		c-0.1-0.2-0.3-0.3-0.4-0.5c-0.1-0.2-0.2-0.3-0.4-0.6c-0.1-0.2-0.3-0.5-0.4-0.8l-1-2.4l-2.3,4.2h-2.6c0.1-0.3,0.1-0.5,0.2-0.7
		c0.1-0.2,0.1-0.4,0.2-0.6c0.1-0.2,0.2-0.4,0.3-0.6l2.3-3.8l-3-5.6h3c0.4,0.6,0.7,1.1,1,1.7l1.1,2.3l2.3-4h2.7
		C336.5,98.3,336.4,98.4,336.4,98.6z"/>
	<path class="st11" d="M365.9,109.4c0,0-0.1-0.1-0.1-0.2s-0.2-0.3-0.3-0.5s-0.2-0.4-0.2-0.6l-0.4-1.3h-3l-0.8,2.7h-2.8
		c0.1-0.3,0.1-0.5,0.2-0.7c0.1-0.2,0.1-0.4,0.2-0.6c0.1-0.2,0.1-0.4,0.2-0.5l3.3-9.5h2.7c0.1,0.2,0.2,0.4,0.3,0.5
		c0.1,0.2,0.2,0.3,0.2,0.5c0.1,0.2,0.2,0.4,0.2,0.6l3.3,9.7H365.9z M363.8,102.8c0-0.1-0.1-0.3-0.1-0.5c0-0.2-0.1-0.4-0.2-0.6
		c-0.1-0.2-0.1-0.5-0.2-0.8c-0.1,0.3-0.1,0.6-0.2,0.8c-0.1,0.2-0.1,0.4-0.2,0.6c-0.1,0.2-0.1,0.4-0.1,0.5l-0.6,2h2.1L363.8,102.8z"
		/>
	<path class="st11" d="M385.3,109.4c-0.1-0.1-0.3-0.3-0.4-0.4c-0.1-0.1-0.2-0.3-0.4-0.5c-0.1-0.2-0.3-0.4-0.4-0.6l-2.3-3.8
		c-0.1-0.2-0.3-0.4-0.4-0.6c-0.1-0.2-0.2-0.4-0.3-0.5s-0.1-0.2-0.1-0.2c0,0,0,0.1,0,0.3c0,0.2,0,0.4,0,0.6s0,0.5,0,0.7v5h-2.3
		c0-0.2-0.1-0.5-0.1-0.6c0-0.2,0-0.4-0.1-0.6c0-0.2,0-0.4,0-0.6v-9.5h2.4c0.2,0.2,0.3,0.3,0.5,0.5c0.1,0.1,0.3,0.3,0.4,0.5
		s0.3,0.4,0.4,0.6l2.4,3.8c0.1,0.1,0.2,0.3,0.3,0.5c0.1,0.2,0.2,0.4,0.2,0.5c0.1,0.1,0.1,0.2,0.1,0.2c0,0,0-0.1,0-0.3
		c0-0.2,0-0.4,0-0.6c0-0.3,0-0.5,0-0.8v-4.9h2.3c0,0,0,0.1,0,0.3c0,0.2,0.1,0.4,0.1,0.7c0,0.3,0,0.5,0,0.8v9.6H385.3z"/>
	<path class="st11" d="M407.8,103.6c0,0.8-0.1,1.6-0.3,2.3c-0.2,0.7-0.5,1.3-0.9,1.8c-0.4,0.5-0.9,0.9-1.5,1.2
		c-0.6,0.3-1.3,0.4-2.1,0.4c-0.3,0-0.6,0-0.9,0c-0.4,0-0.7,0-1.1,0c-0.4,0-0.8,0-1.1,0c-0.4,0-0.7,0-0.9,0c-0.1-0.2-0.1-0.5-0.1-0.8
		c0-0.3,0-0.7,0-1v-9.5c0.3,0,0.6,0,1,0c0.4,0,0.8,0,1.2,0c0.4,0,0.8,0,1.2,0c0.4,0,0.7,0,1,0c0.8,0,1.5,0.1,2.1,0.3
		c0.6,0.2,1.1,0.5,1.5,1c0.4,0.4,0.7,1,0.9,1.7C407.7,101.7,407.8,102.6,407.8,103.6z M404.8,103.6c0-1.3-0.2-2.2-0.5-2.7
		c-0.3-0.6-0.9-0.9-1.7-0.9c-0.2,0-0.6,0-1,0v7.2c0.4,0,0.7,0,1,0c0.8,0,1.4-0.3,1.7-0.9C404.6,105.8,404.8,104.9,404.8,103.6z"/>
	<path class="st11" d="M438.4,106.3c0,0.6-0.1,1.1-0.4,1.5s-0.6,0.8-1,1c-0.4,0.3-0.9,0.5-1.4,0.6s-1,0.2-1.5,0.2
		c-0.6,0-1.3-0.1-1.9-0.3s-1.3-0.5-2-0.9l0.7-2c0.4,0.2,0.8,0.4,1.1,0.5s0.6,0.3,0.8,0.4s0.5,0.2,0.7,0.2c0.2,0,0.4,0.1,0.6,0.1
		c0.4,0,0.6-0.1,0.9-0.3s0.4-0.5,0.4-0.8c0-0.3-0.1-0.5-0.2-0.7s-0.3-0.4-0.6-0.6c-0.2-0.1-0.4-0.3-0.6-0.4
		c-0.2-0.1-0.5-0.3-0.7-0.4c-0.3-0.2-0.5-0.3-0.8-0.5s-0.5-0.3-0.7-0.5c-0.4-0.3-0.7-0.6-0.9-1s-0.3-0.8-0.3-1.3
		c0-0.6,0.1-1.1,0.4-1.5c0.2-0.4,0.6-0.7,0.9-1c0.4-0.3,0.8-0.4,1.3-0.6c0.5-0.1,1-0.2,1.5-0.2c0.6,0,1.2,0.1,1.8,0.3
		c0.6,0.2,1.2,0.4,1.6,0.6l-0.7,2c-0.5-0.2-1-0.5-1.5-0.6c-0.4-0.2-0.8-0.2-1.2-0.2c-0.3,0-0.6,0.1-0.8,0.2s-0.4,0.4-0.4,0.7
		c0,0.3,0.1,0.5,0.3,0.7c0.2,0.2,0.4,0.3,0.6,0.5c0.2,0.1,0.4,0.2,0.6,0.4c0.2,0.1,0.5,0.3,0.7,0.4s0.5,0.3,0.7,0.5s0.5,0.3,0.7,0.5
		c0.4,0.3,0.7,0.7,0.9,1C438.3,105.3,438.4,105.7,438.4,106.3z"/>
	<path class="st11" d="M455.7,100.1h-4.2v2.3h3.7v2.1h-3.7v2.8h4.4v2.1h-7.2c0-0.2-0.1-0.5-0.1-0.6c0-0.2,0-0.4-0.1-0.6
		c0-0.2,0-0.4,0-0.6v-9.5h7.5L455.7,100.1z"/>
	<path class="st11" d="M471.8,109.4c0,0-0.1-0.1-0.2-0.2c-0.1-0.1-0.2-0.3-0.4-0.6s-0.3-0.6-0.5-0.9l-1-2.2
		c-0.1-0.2-0.2-0.4-0.3-0.6c-0.1-0.1-0.2-0.2-0.3-0.2v4.7h-2.8c0-0.2-0.1-0.5-0.1-0.6c0-0.2,0-0.4-0.1-0.6c0-0.2,0-0.4,0-0.6v-9.5
		c0.3,0,0.6,0,1,0c0.4,0,0.8,0,1.2,0c0.4,0,0.8,0,1.2,0c0.4,0,0.7,0,1,0c0.5,0,1,0.1,1.5,0.2s0.9,0.3,1.2,0.6c0.4,0.3,0.6,0.6,0.8,1
		c0.2,0.4,0.3,0.9,0.3,1.4c0,0.4-0.1,0.8-0.2,1.2c-0.1,0.3-0.3,0.6-0.5,0.9c-0.2,0.2-0.5,0.4-0.8,0.6c-0.3,0.2-0.6,0.3-0.9,0.4
		c0.1,0.1,0.2,0.2,0.4,0.4c0.1,0.1,0.2,0.3,0.3,0.5l2.1,4.3H471.8z M471.4,101.4c0-0.5-0.1-0.9-0.4-1.1c-0.3-0.2-0.6-0.3-1.2-0.3
		c-0.1,0-0.4,0-0.6,0v2.8c0.2,0,0.3,0,0.4,0c0.2,0,0.5,0,0.7-0.1c0.2,0,0.4-0.1,0.6-0.2c0.2-0.1,0.3-0.3,0.4-0.4
		S471.4,101.7,471.4,101.4z"/>
	<path class="st11" d="M494,98.3c0,0.1-0.1,0.3-0.1,0.6c-0.1,0.3-0.1,0.6-0.2,0.8l-3.2,9.6h-2.9c-0.1-0.2-0.2-0.4-0.3-0.6
		c-0.1-0.2-0.2-0.4-0.3-0.6c-0.1-0.2-0.2-0.4-0.2-0.7l-2.8-9.5h2.9c0,0,0.1,0.1,0.1,0.3c0.1,0.1,0.2,0.4,0.3,0.6
		c0.1,0.3,0.2,0.5,0.3,0.8l1.2,4.4c0.1,0.4,0.2,0.7,0.2,1.1c0.1,0.3,0.1,0.6,0.2,0.8c0,0.2,0,0.3,0,0.3c0.1-0.2,0.1-0.4,0.1-0.6
		s0.1-0.4,0.2-0.7c0.1-0.3,0.1-0.5,0.2-0.8l1.7-6.1h2.7C494,98.1,494,98.2,494,98.3z"/>
	<path class="st11" d="M504,109.4c0-0.2-0.1-0.5-0.1-0.6c0-0.2,0-0.4-0.1-0.6c0-0.2,0-0.4,0-0.6v-9.5h2.9c0,0,0,0.1,0,0.3
		c0,0.2,0.1,0.4,0.1,0.7c0,0.3,0,0.5,0,0.8v9.6H504z"/>
	<path class="st11" d="M523.9,109.3c-0.6,0.2-1.1,0.2-1.7,0.2c-0.6,0-1.2-0.1-1.8-0.3s-1.1-0.5-1.6-1c-0.5-0.5-0.8-1-1.1-1.8
		c-0.3-0.7-0.4-1.6-0.4-2.6c0-0.9,0.1-1.8,0.4-2.5c0.3-0.7,0.6-1.4,1.1-1.9c0.5-0.5,1-0.9,1.7-1.2c0.7-0.3,1.4-0.4,2.2-0.4
		c0.5,0,1,0.1,1.5,0.2c0.5,0.1,1,0.3,1.4,0.5l-0.5,2c-0.4-0.2-0.7-0.3-1-0.4c-0.3-0.1-0.7-0.2-1-0.2c-0.5,0-0.9,0.1-1.2,0.3
		c-0.3,0.2-0.6,0.5-0.8,0.9s-0.4,0.8-0.5,1.3c-0.1,0.5-0.1,1-0.1,1.5c0,1.2,0.2,2.1,0.6,2.7s1,0.9,1.7,0.9c0.5,0,0.9-0.1,1.3-0.2
		c0.4-0.2,0.8-0.4,1.3-0.7l0.5,1.9C525.1,108.9,524.5,109.2,523.9,109.3z"/>
	<path class="st11" d="M542.8,100.1h-4.2v2.3h3.7v2.1h-3.7v2.8h4.4v2.1h-7.2c0-0.2-0.1-0.5-0.1-0.6c0-0.2,0-0.4-0.1-0.6
		c0-0.2,0-0.4,0-0.6v-9.5h7.5L542.8,100.1z"/>
	<path class="st11" d="M560.6,106.3c0,0.6-0.1,1.1-0.4,1.5s-0.6,0.8-1,1c-0.4,0.3-0.9,0.5-1.4,0.6s-1,0.2-1.5,0.2
		c-0.6,0-1.3-0.1-1.9-0.3s-1.3-0.5-2-0.9l0.7-2c0.4,0.2,0.8,0.4,1.1,0.5s0.6,0.3,0.8,0.4s0.5,0.2,0.7,0.2c0.2,0,0.4,0.1,0.6,0.1
		c0.4,0,0.6-0.1,0.9-0.3s0.4-0.5,0.4-0.8c0-0.3-0.1-0.5-0.2-0.7s-0.3-0.4-0.6-0.6c-0.2-0.1-0.4-0.3-0.6-0.4
		c-0.2-0.1-0.5-0.3-0.7-0.4c-0.3-0.2-0.5-0.3-0.8-0.5s-0.5-0.3-0.7-0.5c-0.4-0.3-0.7-0.6-0.9-1s-0.3-0.8-0.3-1.3
		c0-0.6,0.1-1.1,0.4-1.5c0.2-0.4,0.6-0.7,0.9-1c0.4-0.3,0.8-0.4,1.3-0.6c0.5-0.1,1-0.2,1.5-0.2c0.6,0,1.2,0.1,1.8,0.3
		c0.6,0.2,1.2,0.4,1.6,0.6l-0.7,2c-0.5-0.2-1-0.5-1.5-0.6c-0.4-0.2-0.8-0.2-1.2-0.2c-0.3,0-0.6,0.1-0.8,0.2s-0.4,0.4-0.4,0.7
		c0,0.3,0.1,0.5,0.3,0.7c0.2,0.2,0.4,0.3,0.6,0.5c0.2,0.1,0.4,0.2,0.6,0.4c0.2,0.1,0.5,0.3,0.7,0.4s0.5,0.3,0.7,0.5s0.5,0.3,0.7,0.5
		c0.4,0.3,0.7,0.7,0.9,1C560.5,105.3,560.6,105.7,560.6,106.3z"/>
</g>
</svg>
