<?xml version="1.0" encoding="UTF-8" standalone="no"?>
<svg
   xmlns:dc="http://purl.org/dc/elements/1.1/"
   xmlns:cc="http://creativecommons.org/ns#"
   xmlns:rdf="http://www.w3.org/1999/02/22-rdf-syntax-ns#"
   xmlns:svg="http://www.w3.org/2000/svg"
   xmlns="http://www.w3.org/2000/svg"
   version="1.1"
   id="Capa_1"
   x="0px"
   y="0px"
   viewBox="0 0 322.3 265.4"
   style="enable-background:new 0 0 322.3 265.4;"
   xml:space="preserve"><metadata
   id="metadata338"><rdf:RDF><cc:Work
       rdf:about=""><dc:format>image/svg+xml</dc:format><dc:type
         rdf:resource="http://purl.org/dc/dcmitype/StillImage" /><dc:title></dc:title></cc:Work></rdf:RDF></metadata><defs
   id="defs336" />
<style
   type="text/css"
   id="style2">
	.st0{fill:none;}
	.st1{fill:url(#SVGID_1_);}
	.st2{fill:url(#SVGID_2_);}
	.st3{fill:url(#SVGID_3_);}
	.st4{fill:url(#SVGID_4_);}
	.st5{fill:url(#SVGID_5_);}
	.st6{fill:url(#SVGID_6_);}
	.st7{fill:url(#SVGID_7_);}
	.st8{fill:url(#SVGID_8_);}
	.st9{fill:url(#SVGID_9_);}
	.st10{fill:#FFFFFF;}
</style>
<g
   id="g331">
	<g
   id="g265">
		<path
   class="st0"
   d="M119.5,56.6c-3-3-5.8-5.8-8.2-8.2C114.1,51.3,116.9,54,119.5,56.6z"
   id="path4" />
		<g
   id="g68">
			<linearGradient
   id="SVGID_1_"
   gradientUnits="userSpaceOnUse"
   x1="38.1463"
   y1="112.8438"
   x2="152.4822"
   y2="112.8438">
				<stop
   offset="0"
   style="stop-color:#FFEDC2"
   id="stop6" />
				<stop
   offset="0.1767"
   style="stop-color:#F7EFA6"
   id="stop8" />
				<stop
   offset="0.3763"
   style="stop-color:#F4D16F"
   id="stop10" />
				<stop
   offset="0.4657"
   style="stop-color:#EFC75E"
   id="stop12" />
				<stop
   offset="0.5676"
   style="stop-color:#E4B650"
   id="stop14" />
				<stop
   offset="0.6237"
   style="stop-color:#B07120"
   id="stop16" />
				<stop
   offset="0.6528"
   style="stop-color:#B07120"
   id="stop18" />
				<stop
   offset="0.7152"
   style="stop-color:#F3D76C"
   id="stop20" />
				<stop
   offset="0.7921"
   style="stop-color:#F8E87E"
   id="stop22" />
				<stop
   offset="0.8441"
   style="stop-color:#F7F1A4"
   id="stop24" />
				<stop
   offset="0.8919"
   style="stop-color:#FFF3C6"
   id="stop26" />
				<stop
   offset="0.9376"
   style="stop-color:#E6AE06"
   id="stop28" />
				<stop
   offset="0.9439"
   style="stop-color:#E6AE06"
   id="stop30" />
				<stop
   offset="1"
   style="stop-color:#FBCB4B"
   id="stop32" />
			</linearGradient>
			<path
   class="st1"
   d="M129.8,132.9c0,0-28.5-25.4-49.5-40.6c-0.9-0.6-1.8-1.3-2.7-1.9c0,0-26.6-18.9-33.7-53     c0,0-21.9,41.3,19.7,73.5l15.7,10.1l34.7,22.4c0,0,26.2,15.7,31.3,44c2.2,0.3,4.5,0.6,6.7,0.8     C153.8,173.4,150.7,153.2,129.8,132.9z"
   id="path35" />
			<linearGradient
   id="SVGID_2_"
   gradientUnits="userSpaceOnUse"
   x1="95.3176"
   y1="189.3279"
   x2="95.3176"
   y2="34.4929">
				<stop
   offset="0"
   style="stop-color:#FFEDC2"
   id="stop37" />
				<stop
   offset="0.1767"
   style="stop-color:#F7EFA6"
   id="stop39" />
				<stop
   offset="0.3763"
   style="stop-color:#F4D16F"
   id="stop41" />
				<stop
   offset="0.4657"
   style="stop-color:#EFC75E"
   id="stop43" />
				<stop
   offset="0.5676"
   style="stop-color:#E4B650"
   id="stop45" />
				<stop
   offset="0.6237"
   style="stop-color:#B07120"
   id="stop47" />
				<stop
   offset="0.6528"
   style="stop-color:#B07120"
   id="stop49" />
				<stop
   offset="0.7152"
   style="stop-color:#F3D76C"
   id="stop51" />
				<stop
   offset="0.7921"
   style="stop-color:#F8E87E"
   id="stop53" />
				<stop
   offset="0.8441"
   style="stop-color:#F7F1A4"
   id="stop55" />
				<stop
   offset="0.8919"
   style="stop-color:#FFF3C6"
   id="stop57" />
				<stop
   offset="0.9376"
   style="stop-color:#E6AE06"
   id="stop59" />
				<stop
   offset="0.9439"
   style="stop-color:#E6AE06"
   id="stop61" />
				<stop
   offset="1"
   style="stop-color:#FBCB4B"
   id="stop63" />
			</linearGradient>
			<path
   class="st2"
   d="M153,189.3l-1-0.1c-2-0.1-4.1-0.4-6.8-0.8l-0.7-0.1l-0.1-0.7c-5-27.6-30.6-43.2-30.8-43.3l-50.5-32.5     C41.2,94.9,36.9,75.4,37.2,62.1C37.4,47.7,42.8,37.4,43,37l1.3-2.5l0.6,2.7c6.9,33.3,33,52.2,33.3,52.4c0.9,0.6,1.8,1.2,2.7,1.9     c20.8,15,49.3,40.4,49.6,40.6l0,0c17.3,16.8,24.9,35.7,22.6,56.2L153,189.3z M146.2,186.6c1.9,0.3,3.5,0.5,5,0.6     c1.9-19.5-5.5-37.5-22.1-53.6c-0.8-0.7-28.9-25.7-49.4-40.5c-0.9-0.6-1.8-1.3-2.6-1.9c-0.3-0.2-25.5-18.4-33.4-50.7     c-1.6,3.9-4.3,11.9-4.4,21.7c-0.3,18.7,8.1,34.8,25.1,48l50.4,32.5C114.8,142.8,140.8,158.6,146.2,186.6z"
   id="path66" />
		</g>
		<g
   id="g132">
			<linearGradient
   id="SVGID_3_"
   gradientUnits="userSpaceOnUse"
   x1="33.8873"
   y1="139.0895"
   x2="142.2177"
   y2="139.0895">
				<stop
   offset="0"
   style="stop-color:#FFEDC2"
   id="stop70" />
				<stop
   offset="0.1767"
   style="stop-color:#F7EFA6"
   id="stop72" />
				<stop
   offset="0.3763"
   style="stop-color:#F4D16F"
   id="stop74" />
				<stop
   offset="0.4657"
   style="stop-color:#EFC75E"
   id="stop76" />
				<stop
   offset="0.5676"
   style="stop-color:#E4B650"
   id="stop78" />
				<stop
   offset="0.6237"
   style="stop-color:#B07120"
   id="stop80" />
				<stop
   offset="0.6528"
   style="stop-color:#B07120"
   id="stop82" />
				<stop
   offset="0.7152"
   style="stop-color:#F3D76C"
   id="stop84" />
				<stop
   offset="0.7921"
   style="stop-color:#F8E87E"
   id="stop86" />
				<stop
   offset="0.8441"
   style="stop-color:#F7F1A4"
   id="stop88" />
				<stop
   offset="0.8919"
   style="stop-color:#FFF3C6"
   id="stop90" />
				<stop
   offset="0.9376"
   style="stop-color:#E6AE06"
   id="stop92" />
				<stop
   offset="0.9439"
   style="stop-color:#E6AE06"
   id="stop94" />
				<stop
   offset="1"
   style="stop-color:#FBCB4B"
   id="stop96" />
			</linearGradient>
			<path
   class="st3"
   d="M118.5,151.4c0,0-14.7-10.1-37.4-21.7c-4.8-2.5-12.1-6.2-17.6-8.7c0,0-21.2-13.5-29.3-29.7     c0,0-6,40.3,29.1,56.8L96,161.8c0,0,1.3,0.4,3.5,1.2c5.9,2.2,18.1,7.9,27.8,19.4c4.8,2,9.8,3.5,14.9,4.5     C139.9,175.6,133.5,162.7,118.5,151.4z"
   id="path99" />
			<linearGradient
   id="SVGID_4_"
   gradientUnits="userSpaceOnUse"
   x1="88.2149"
   y1="188.1843"
   x2="88.2149"
   y2="87.9949">
				<stop
   offset="0"
   style="stop-color:#FFEDC2"
   id="stop101" />
				<stop
   offset="0.1767"
   style="stop-color:#F7EFA6"
   id="stop103" />
				<stop
   offset="0.3763"
   style="stop-color:#F4D16F"
   id="stop105" />
				<stop
   offset="0.4657"
   style="stop-color:#EFC75E"
   id="stop107" />
				<stop
   offset="0.5676"
   style="stop-color:#E4B650"
   id="stop109" />
				<stop
   offset="0.6237"
   style="stop-color:#B07120"
   id="stop111" />
				<stop
   offset="0.6528"
   style="stop-color:#B07120"
   id="stop113" />
				<stop
   offset="0.7152"
   style="stop-color:#F3D76C"
   id="stop115" />
				<stop
   offset="0.7921"
   style="stop-color:#F8E87E"
   id="stop117" />
				<stop
   offset="0.8441"
   style="stop-color:#F7F1A4"
   id="stop119" />
				<stop
   offset="0.8919"
   style="stop-color:#FFF3C6"
   id="stop121" />
				<stop
   offset="0.9376"
   style="stop-color:#E6AE06"
   id="stop123" />
				<stop
   offset="0.9439"
   style="stop-color:#E6AE06"
   id="stop125" />
				<stop
   offset="1"
   style="stop-color:#FBCB4B"
   id="stop127" />
			</linearGradient>
			<path
   class="st4"
   d="M143.5,188.2l-1.5-0.3c-5.2-1-10.3-2.6-15.1-4.6l-0.2-0.1l-0.2-0.2c-9.4-11.2-21.2-16.8-27.4-19.1     c-2.1-0.8-3.4-1.1-3.4-1.2l-0.1,0L63,149c-35.4-16.7-29.7-57.4-29.7-57.8l0.5-3.1l1.4,2.8c7.7,15.3,27.6,28.4,28.9,29.2     c4.8,2.2,10.7,5.2,15.5,7.7l2,1c22.5,11.5,37.4,21.7,37.5,21.8l0,0c13,9.8,21.1,22,24.1,36.1L143.5,188.2z M127.9,181.5     c4.2,1.7,8.6,3.1,13,4.1c-3.1-13-10.8-24.2-22.9-33.4c-0.6-0.4-15.2-10.4-37.3-21.7l-2-1c-4.8-2.5-10.7-5.5-15.5-7.7l-0.1-0.1     c-0.8-0.5-19.1-12.3-28-27.1c-0.5,9.8,0.5,39.2,28.8,52.5l32.6,13.7c0.3,0.1,1.6,0.5,3.5,1.2     C106.2,164.4,118.2,170.1,127.9,181.5z"
   id="path130" />
		</g>
		<g
   id="g196">
			<linearGradient
   id="SVGID_5_"
   gradientUnits="userSpaceOnUse"
   x1="58.1954"
   y1="96.8259"
   x2="167.3603"
   y2="96.8259">
				<stop
   offset="0"
   style="stop-color:#FFEDC2"
   id="stop134" />
				<stop
   offset="0.1767"
   style="stop-color:#F7EFA6"
   id="stop136" />
				<stop
   offset="0.3763"
   style="stop-color:#F4D16F"
   id="stop138" />
				<stop
   offset="0.4657"
   style="stop-color:#EFC75E"
   id="stop140" />
				<stop
   offset="0.5676"
   style="stop-color:#E4B650"
   id="stop142" />
				<stop
   offset="0.6237"
   style="stop-color:#B07120"
   id="stop144" />
				<stop
   offset="0.6528"
   style="stop-color:#B07120"
   id="stop146" />
				<stop
   offset="0.7152"
   style="stop-color:#F3D76C"
   id="stop148" />
				<stop
   offset="0.7921"
   style="stop-color:#F8E87E"
   id="stop150" />
				<stop
   offset="0.8441"
   style="stop-color:#F7F1A4"
   id="stop152" />
				<stop
   offset="0.8919"
   style="stop-color:#FFF3C6"
   id="stop154" />
				<stop
   offset="0.9376"
   style="stop-color:#E6AE06"
   id="stop156" />
				<stop
   offset="0.9439"
   style="stop-color:#E6AE06"
   id="stop158" />
				<stop
   offset="1"
   style="stop-color:#FBCB4B"
   id="stop160" />
			</linearGradient>
			<path
   class="st5"
   d="M142.3,102.9c0,0-31.9-31.4-45.3-44.8c-1.4-1.4-2.7-2.7-3.6-3.6c0,0-29.2-31.4-24.6-49.2     c0,0-30.9,37,12.5,78.5l0.9,0.8l45.5,40c0,0,30.8,22.8,27.2,63.8c0.9,0,1.8,0.1,2.7,0.1c1.2,0,2.3,0,3.5-0.1     c0.1,0,0.2-0.1,0.3-0.1C169.3,168.9,174.4,136.2,142.3,102.9z"
   id="path163" />
			<linearGradient
   id="SVGID_6_"
   gradientUnits="userSpaceOnUse"
   x1="112.8184"
   y1="189.4314"
   x2="112.8184"
   y2="1.1541">
				<stop
   offset="0"
   style="stop-color:#FFEDC2"
   id="stop165" />
				<stop
   offset="0.1767"
   style="stop-color:#F7EFA6"
   id="stop167" />
				<stop
   offset="0.3763"
   style="stop-color:#F4D16F"
   id="stop169" />
				<stop
   offset="0.4657"
   style="stop-color:#EFC75E"
   id="stop171" />
				<stop
   offset="0.5676"
   style="stop-color:#E4B650"
   id="stop173" />
				<stop
   offset="0.6237"
   style="stop-color:#B07120"
   id="stop175" />
				<stop
   offset="0.6528"
   style="stop-color:#B07120"
   id="stop177" />
				<stop
   offset="0.7152"
   style="stop-color:#F3D76C"
   id="stop179" />
				<stop
   offset="0.7921"
   style="stop-color:#F8E87E"
   id="stop181" />
				<stop
   offset="0.8441"
   style="stop-color:#F7F1A4"
   id="stop183" />
				<stop
   offset="0.8919"
   style="stop-color:#FFF3C6"
   id="stop185" />
				<stop
   offset="0.9376"
   style="stop-color:#E6AE06"
   id="stop187" />
				<stop
   offset="0.9439"
   style="stop-color:#E6AE06"
   id="stop189" />
				<stop
   offset="1"
   style="stop-color:#FBCB4B"
   id="stop191" />
			</linearGradient>
			<path
   class="st6"
   d="M157.7,189.4c-0.9,0-1.8,0-2.8-0.1l-1.1,0l0.1-1c3.4-40.1-26.5-62.7-26.8-62.9L80.7,84.5     C68.1,72.5,54,53,57.8,28.7C60.2,14.2,67.8,5,68.1,4.6L71,1.2l-1.1,4.3c-4.5,17.1,24,48,24.3,48.3c0.9,0.9,2.2,2.2,3.6,3.6     c13.3,13.2,44.9,44.5,45.3,44.8l0,0c31.7,32.9,28,65.1,19.4,86.4l-0.1,0.4l-0.8,0.4l-0.2,0C160,189.4,158.8,189.4,157.7,189.4z      M156.1,187.4c1.5,0,3,0,4.7,0c8.3-20.7,11.5-51.9-19.2-83.8c-0.7-0.7-32.1-31.6-45.3-44.8c-1.4-1.4-2.7-2.7-3.6-3.6     c-1.1-1.2-25.6-27.7-25.3-46.1c-2.4,3.9-6.1,10.9-7.6,20C56.9,47.7,64.6,66.3,82.1,83l46.4,40.8C128.7,124,159,146.9,156.1,187.4     z"
   id="path194" />
		</g>
		<linearGradient
   id="SVGID_7_"
   gradientUnits="userSpaceOnUse"
   x1="200.53"
   y1="94.7483"
   x2="207.7121"
   y2="94.7483">
			<stop
   offset="0"
   style="stop-color:#B37E11"
   id="stop198" />
			<stop
   offset="0.2151"
   style="stop-color:#E2BE57"
   id="stop200" />
			<stop
   offset="0.328"
   style="stop-color:#F9DE7C"
   id="stop202" />
			<stop
   offset="0.524"
   style="stop-color:#FEF2A6"
   id="stop204" />
			<stop
   offset="0.7298"
   style="stop-color:#F9DE7C"
   id="stop206" />
			<stop
   offset="1"
   style="stop-color:#B37E11"
   id="stop208" />
		</linearGradient>
		<path
   class="st7"
   d="M207.7,96.3c0,0-3-3.6-7.2-3.6C200.5,92.7,203.5,98.7,207.7,96.3z"
   id="path211" />
		<g
   id="g263">
			<linearGradient
   id="SVGID_8_"
   gradientUnits="userSpaceOnUse"
   x1="111.3426"
   y1="106.6631"
   x2="237.0389"
   y2="106.6631">
				<stop
   offset="0"
   style="stop-color:#BCA674"
   id="stop213" />
				<stop
   offset="0.3112"
   style="stop-color:#E8D194"
   id="stop215" />
				<stop
   offset="0.5273"
   style="stop-color:#E4CD91"
   id="stop217" />
				<stop
   offset="0.6664"
   style="stop-color:#D8C289"
   id="stop219" />
				<stop
   offset="0.7838"
   style="stop-color:#C4AF7B"
   id="stop221" />
				<stop
   offset="0.8891"
   style="stop-color:#AA9768"
   id="stop223" />
				<stop
   offset="0.9854"
   style="stop-color:#8A7B53"
   id="stop225" />
				<stop
   offset="1"
   style="stop-color:#857650"
   id="stop227" />
			</linearGradient>
			<path
   class="st8"
   d="M237,108.3c0-42.6-34.5-77.1-77.1-77.1c-18.4,0-35.3,6.5-48.6,17.2c2.4,2.4,5.2,5.2,8.2,8.2     c35.4,33.3,61.3,34.3,61.3,34.3c-11.4-7.3-5.7-23.9-5.7-23.9c1,17.5,17,16.2,17,16.2c19.4-3.2,25.2,12.2,25.2,12.2     c0.6,0.3,1.1,0.7,1.7,1.1c6.8,5.1,12.8,18,12.8,18c-5.1-3.1-9.6-5.1-13.6-6.3c-7.6-2.3-13.5-1.7-17.9,0.6     c-9.6,5.4-10.7,18.7-10.7,18.7c-1.7,28.8-4.6,45.2-7.3,54.6C213.9,172.6,237,143.1,237,108.3z"
   id="path230" />
			<linearGradient
   id="SVGID_9_"
   gradientUnits="userSpaceOnUse"
   x1="109.8494"
   y1="106.908"
   x2="238.0394"
   y2="106.908">
				<stop
   offset="0"
   style="stop-color:#FFEDC2"
   id="stop232" />
				<stop
   offset="0.1767"
   style="stop-color:#F7EFA6"
   id="stop234" />
				<stop
   offset="0.3763"
   style="stop-color:#F4D16F"
   id="stop236" />
				<stop
   offset="0.4657"
   style="stop-color:#EFC75E"
   id="stop238" />
				<stop
   offset="0.5676"
   style="stop-color:#E4B650"
   id="stop240" />
				<stop
   offset="0.6237"
   style="stop-color:#B07120"
   id="stop242" />
				<stop
   offset="0.6528"
   style="stop-color:#B07120"
   id="stop244" />
				<stop
   offset="0.7152"
   style="stop-color:#F3D76C"
   id="stop246" />
				<stop
   offset="0.7921"
   style="stop-color:#F8E87E"
   id="stop248" />
				<stop
   offset="0.8441"
   style="stop-color:#F7F1A4"
   id="stop250" />
				<stop
   offset="0.8919"
   style="stop-color:#FFF3C6"
   id="stop252" />
				<stop
   offset="0.9376"
   style="stop-color:#E6AE06"
   id="stop254" />
				<stop
   offset="0.9439"
   style="stop-color:#E6AE06"
   id="stop256" />
				<stop
   offset="1"
   style="stop-color:#FBCB4B"
   id="stop258" />
			</linearGradient>
			<path
   class="st9"
   d="M180.8,183.6l0.5-1.8c3.4-11.6,5.8-29.9,7.3-54.4c0-0.6,1.2-13.9,11.2-19.5c5.2-2.6,11.5-2.9,18.7-0.7     c3.4,1,7.1,2.6,10.9,4.7c-2.2-4.1-6.4-11.3-11-14.7c-0.6-0.4-1.1-0.7-1.5-1l-0.3-0.2l-0.1-0.4c-0.2-0.6-5.8-14.6-24.1-11.6     c-0.4,0-7.2,0.5-12.4-4c-2.3-2-3.9-4.6-4.8-7.9c-0.2,1.2-0.3,2.5-0.3,3.9c0,6.3,2.3,10.9,6.7,13.8l3.1,2l-3.7-0.1     c-1.1,0-26.7-1.4-61.9-34.6c-3-3-5.8-5.8-8.2-8.2l-0.8-0.8l0.9-0.7c13.9-11.2,31.3-17.4,49.2-17.4c43.1,0,78.1,35,78.1,78.1     c0,17.1-5.4,33.4-15.7,47c-9.9,13.2-24.1,23-39.8,27.8L180.8,183.6z M209.2,107.8c-3.1,0-6,0.6-8.5,1.9c-9,5-10.1,17.7-10.1,17.9     c-1.4,23.4-3.7,41.2-6.9,53c14.6-4.8,27.7-14.2,37-26.5c10-13.3,15.3-29.1,15.3-45.8c0-42-34.1-76.1-76.1-76.1     c-17,0-33.7,5.8-47.1,16.3c2.2,2.2,4.7,4.7,7.4,7.4c27.3,25.8,49.1,32,57.2,33.5c-3.1-3.2-4.8-7.7-4.8-13.2     c0-5.2,1.4-9.3,1.5-9.5l1.6-4.8l0.3,5.1c0.3,5.2,2,9.1,5,11.7c4.6,4,10.8,3.6,10.9,3.6c18.2-3,25,10.1,26.1,12.5     c0.5,0.3,1,0.6,1.5,1c6.9,5.2,12.9,17.9,13.1,18.4l1.4,3l-2.8-1.7c-4.8-2.9-9.3-5-13.4-6.2C214.8,108.3,211.9,107.8,209.2,107.8z     "
   id="path261" />
		</g>
	</g>
	<g
   id="g291">
		<path
   class="st10"
   d="M13.7,225.3c1.1-0.9,1.8-2.4,1.8-4.1c0-3.6-2.9-5.9-7.4-5.9l-6.1,0l0,1.3l0.9,0c0.8,0,1.6,0.6,1.6,1.6v18.6    c-1.7-1-2.7-2.9-3.1-5.7l-0.1-0.5L0,230.8l0,0.4c-0.1,2.6,0.6,4.7,2.1,6.2c1.7,1.7,4.2,2.6,7.4,2.6c6,0,9.9-3.1,9.9-7.7    C19.5,228.8,17.4,226.2,13.7,225.3z M7.8,226.6l0.5,0c0,0,0,0,0,0c1.6,0,4.6,0.3,6.3,2c0.9,0.9,1.4,2.1,1.4,3.6c0,1.6-0.5,3-1.5,4    c-1.1,1.1-2.8,1.7-4.8,1.7c0,0,0,0,0,0c-0.7,0-1.4,0-2-0.1v-20.4c1.5,0,2.7,0.4,3.4,1.1c0.6,0.6,0.9,1.6,0.9,2.8    c0,1.3-0.4,2.4-1.1,3.1c-0.6,0.6-1.6,1-2.6,1c0,0,0,0,0,0l-0.5,0L7.8,226.6z"
   id="path267" />
		<path
   class="st10"
   d="M41.5,216.6h1c0.7,0,1.2,0.5,1.3,1.1l0,13.2c0,4.4-2.7,7.2-6.9,7.2c-4,0-6.6-3-6.6-7.6l0-12.7    c0-0.7,0.6-1.1,1.3-1.1h1v-1.3h-7.8v1.3h1c0.7,0,1.3,0.5,1.3,1.2l0,13.2c0,5.5,3.9,9.2,9.8,9.2c5.7,0,9.5-3.7,9.5-9.2v-13.2    c0-0.6,0.6-1.1,1.3-1.1h1v-1.3h-7.2V216.6z"
   id="path269" />
		<path
   class="st10"
   d="M69.8,233.5c-1,2.5-2.3,4.1-5.5,4.1H60v-9l5.2,0c0.6,0,1.1,0.5,1.1,1.1v1l1.3,0v-6.3l-1.3,0v1    c0,0.6-0.5,1.1-1.1,1.1H60v-9.3l6.3,0c0.8,0,1.4,0.7,1.4,1.5v1.1l1.3,0l0-5.5l-0.7,0.3c-0.5,0.2-2.3,0.6-3.8,0.6l-10.3,0l0,1.3    l0.9,0c0.8,0,1.5,0.6,1.6,1.4v18.7c0,0.9-0.8,1.6-1.6,1.6l-0.9,0l0,1.3H69l2.3-6.4h-1.4L69.8,233.5z"
   id="path271" />
		<path
   class="st10"
   d="M94.3,216.6l1.1,0c0.8,0,1.5,0.7,1.6,1.5l0,15.3l-17.3-18.5l-0.1-0.2h-1.2l0.1,0.6c0,0,0.3,1.9,0.3,4.1v17.3    c0,0.8-0.7,1.5-1.6,1.5h-1.1l0,1.3h7.9l0-1.3h-1.1c-0.8,0-1.5-0.7-1.6-1.5l0-15.4l17.5,18.7h0.5h0.6l-0.1-0.6c0,0-0.3-2.1-0.3-4.2    v-17.2c0-0.8,0.7-1.5,1.6-1.5l1.1,0l0-1.3h-7.9L94.3,216.6z"
   id="path273" />
		<path
   class="st10"
   d="M127.3,236.5l-9.1-21.7h-1.1v0.5c0,0.4-0.6,1.9-1.2,3.2l-7.6,18c-0.6,1.3-1.7,1.8-2.5,1.8h-0.8v1.3h7.7v-1.3    H112c-0.3,0-0.6-0.1-0.8-0.4c-0.2-0.3-0.2-0.6-0.1-1l2.1-5.4h8.3l2,5.4c0.2,0.4,0.1,0.8,0,1.1c-0.2,0.2-0.5,0.4-0.8,0.4h-0.8v1.3    h8.5v-1.3h-0.8C129,238.3,127.9,237.8,127.3,236.5z M120.9,229.5h-6.8l3.5-8.8L120.9,229.5z"
   id="path275" />
		<path
   class="st10"
   d="M147.4,216.6h0.8c0.3,0,0.6,0.1,0.8,0.4c0.2,0.3,0.2,0.6,0,1l-6.8,16.4l-6.5-16.3c-0.2-0.4-0.1-0.8,0-1    c0.2-0.2,0.4-0.4,0.8-0.4h0.8v-1.3l-8.5,0v1.3h0.8c0.8,0,1.9,0.5,2.5,1.8l9.5,21.7h1.1v-0.5c0-0.4,0.6-2,1.2-3.2l8-18    c0.6-1.3,1.7-1.8,2.5-1.8h0.8v-1.3l-7.7,0V216.6z"
   id="path277" />
		<path
   class="st10"
   d="M174.6,233.5c-1,2.5-2.3,4.1-5.5,4.1h-4.3v-9l5.2,0c0.6,0,1.1,0.5,1.1,1.1v1l1.3,0v-6.3l-1.3,0v1    c0,0.6-0.5,1.1-1.1,1.1h-5.1v-9.3l6.3,0c0.8,0,1.4,0.7,1.4,1.5v1.1l1.3,0l0-5.5l-0.7,0.3c-0.5,0.2-2.3,0.6-3.8,0.6l-10.3,0l0,1.3    l0.9,0c0.8,0,1.5,0.6,1.6,1.4v18.7c0,0.9-0.8,1.6-1.6,1.6l-0.9,0l0,1.3h14.7l2.3-6.4h-1.4L174.6,233.5z"
   id="path279" />
		<path
   class="st10"
   d="M199.1,216.6l1.1,0c0.8,0,1.5,0.7,1.6,1.5l0,15.3l-17.3-18.5l-0.1-0.2h-1.2l0.1,0.6c0,0,0.3,1.9,0.3,4.1    v17.3c0,0.8-0.7,1.5-1.6,1.5h-1.1l0,1.3h7.9l0-1.3h-1.1c-0.8,0-1.5-0.7-1.6-1.5l0-15.4l17.5,18.7h0.5h0.6l-0.1-0.6    c0,0-0.3-2.1-0.3-4.2v-17.2c0-0.8,0.7-1.5,1.6-1.5l1.1,0l0-1.3H199L199.1,216.6z"
   id="path281" />
		<path
   class="st10"
   d="M227.2,215.2h-11.3c-1.4,0-3.3-0.4-3.8-0.6l-0.7-0.3v5.5l1.3,0l0-1.1c0-0.8,0.6-1.5,1.4-1.5h5.8l0,19.5    c0,0.9-0.8,1.6-1.6,1.6l-0.9,0l0,1.3h8.3l0-1.3l-0.9,0c-0.9,0-1.6-0.7-1.6-1.6v-19.5l5.8,0c0.8,0,1.4,0.7,1.4,1.5v1.1l1.3,0v-5.5    l-0.7,0.3C230.5,214.9,228.6,215.2,227.2,215.2z"
   id="path283" />
		<path
   class="st10"
   d="M253.1,216.6h1c0.7,0,1.2,0.5,1.3,1.1l0,13.2c0,4.4-2.7,7.2-6.9,7.2c-4,0-6.6-3-6.6-7.6l0-12.7    c0-0.7,0.6-1.1,1.3-1.1h1v-1.3h-7.8v1.3h1c0.7,0,1.3,0.5,1.3,1.2l0,13.2c0,5.5,3.9,9.2,9.8,9.2c5.7,0,9.5-3.7,9.5-9.2v-13.2    c0-0.6,0.6-1.1,1.3-1.1h1v-1.3h-7.2V216.6z"
   id="path285" />
		<path
   class="st10"
   d="M283.1,235.9c-1.3-1.4-4.1-5.4-4.1-5.5c-0.4-0.6-0.9-1.2-1.5-1.7c3-0.7,4.9-3.8,4.9-6.7c0-4.2-2.7-6.8-7-6.8    l-9.5,0l0,1.3l0.9,0c0.9,0,1.6,0.7,1.6,1.6v18.5c0,0.9-0.7,1.6-1.6,1.6l-0.9,0l0,1.3h8.3l0-1.3l-0.9,0c-0.9,0-1.6-0.7-1.6-1.6    v-19.4c0.1,0,0.2,0,0.3,0c0.9,0,2.2,0,3.3,0c2.2,0.1,3.6,1.8,3.7,4.6c0,0.7-0.1,1.4-0.2,1.8c-0.9,2.7-3.1,3.1-4.7,3.1    c-1,0-1.7,0-1.7,0l-0.5,0v1.3h0.5c1,0,1.8,1,2.7,2.1c0.1,0.1,0.9,1.2,1.6,2.3c1.5,2.1,2.6,3.7,2.8,3.9c1.2,1.4,3,3.1,6.2,3.1h2.3    v-1.3l-0.5,0C285.6,238.3,284.5,237.4,283.1,235.9z"
   id="path287" />
		<path
   class="st10"
   d="M322.2,244.9l-0.6,0.1c-5.5,1.2-9.1-5.5-11.1-11.2l-4.1-11.5c-1.1-3-2.5-7.1-5.8-8.5    c-1.9-0.8-4.1-0.7-6.7,0.4l-0.4,0.2l0.4,1.3l0.5-0.2c2.7-1,4.7-0.5,6.3,1.7l-8.1,19.6c-0.6,1.2-1.6,1.6-2.4,1.6h-0.8v1.3h7.7v-1.3    h-0.8c-0.3,0-0.6-0.1-0.8-0.4c-0.2-0.3-0.2-0.6,0-1.1l2.2-5.6h8.5l1.2,3.5c2,5.8,4.8,9.8,8.1,11.3c1.1,0.5,2.3,0.8,3.5,0.8    c1,0,2-0.2,3.1-0.6l0.4-0.1L322.2,244.9z M305.5,229.2l-7,0l3.7-9.5c0.3,0.8,0.6,1.6,0.9,2.4L305.5,229.2z"
   id="path289" />
	</g>
	<g
   id="g329">
		<path
   class="st10"
   d="M32.5,256.3h0.9v9.1h-0.9V256.3z"
   id="path293" />
		<path
   class="st10"
   d="M47.5,256.3v9.1h-0.9l-5-7.7v7.7h-0.9v-9.1h0.9l5,7.6v-7.6H47.5z"
   id="path295" />
		<path
   class="st10"
   d="M58.9,256.2c2,0,3.5,1,4.2,2.8H62c-0.5-1.2-1.6-2-3.1-2c-2,0-3.5,1.5-3.5,3.9c0,2.4,1.5,3.8,3.5,3.8    c1.6,0,2.6-0.8,3.1-1.9H63c-0.7,1.7-2.2,2.7-4.2,2.7c-2.5,0-4.5-1.9-4.5-4.6C54.4,258.1,56.3,256.2,58.9,256.2z"
   id="path297" />
		<path
   class="st10"
   d="M74.2,265.5c-2.6,0-4.5-1.9-4.5-4.7c0-2.7,2-4.7,4.5-4.7c2.6,0,4.5,1.9,4.5,4.7    C78.7,263.6,76.7,265.5,74.2,265.5z M74.2,264.7c2,0,3.6-1.5,3.6-3.9s-1.6-3.8-3.6-3.8s-3.6,1.5-3.6,3.8S72.1,264.7,74.2,264.7z"
   id="path299" />
		<path
   class="st10"
   d="M85.5,256.4h1l3.5,7.8l3.5-7.8h1v9h-0.9v-7.2l-3.2,7.2h-0.7l-3.2-7.2v7.2h-0.9V256.4z"
   id="path301" />
		<path
   class="st10"
   d="M106.5,257h-3.8v3.4h3.5v0.8h-3.5v3.5h3.8v0.8h-4.8v-9.1h4.8V257z"
   id="path303" />
		<path
   class="st10"
   d="M121.6,256.3h6v0.8h-2.5v8.4h-0.9v-8.4h-2.5V256.3z"
   id="path305" />
		<path
   class="st10"
   d="M139.5,263.2h-4.1l-0.8,2.2h-1l3.3-9h1l3.3,9h-1L139.5,263.2z M137.5,257.6l-1.8,4.9h3.6L137.5,257.6z"
   id="path307" />
		<path
   class="st10"
   d="M150.7,261.6l-2.2,3.8h-1l2.8-4.6l-2.8-4.5h1l2.3,3.8l2.2-3.8h1l-2.8,4.6l2.8,4.5h-1L150.7,261.6z"
   id="path309" />
		<path
   class="st10"
   d="M173.9,258.2c0-0.8-0.6-1.3-1.3-1.3c-0.8,0-1.3,0.5-1.3,1.2c0,0.6,0.3,1.1,1,1.7l3,3    c0.2-0.2,0.3-0.5,0.5-0.8l0.8-1.4h1l-1,1.7c-0.2,0.4-0.5,0.8-0.7,1.1l1.9,1.9h-1.2l-1.2-1.3c-0.9,1-1.9,1.4-3.1,1.4    c-1.8,0-3.1-1.1-3.1-2.8c0-1.3,0.7-2.3,2.2-2.8c-0.6-0.7-0.9-1.2-0.9-1.9c0-1.1,0.9-2,2.3-2c1.3,0,2.2,0.8,2.2,2H173.9z     M174.7,263.5l-2.9-2.9c-1.2,0.5-1.8,1.2-1.8,2.2c0,1.1,0.9,2,2.2,2C173.2,264.8,174,264.4,174.7,263.5z"
   id="path311" />
		<path
   class="st10"
   d="M195.7,265.5c-1.8,0-3-1-3.1-2.4h1c0.1,0.8,0.6,1.7,2.1,1.7c1.3,0,2-0.7,2-1.7c0-2.7-5-1-5-4.4    c0-1.4,1.2-2.4,2.9-2.4c1.7,0,2.8,1,2.9,2.2h-1c-0.1-0.6-0.7-1.4-2-1.4c-1.1,0-2,0.6-2,1.6c0,2.6,5,1,5,4.4    C198.6,264.2,197.6,265.5,195.7,265.5z"
   id="path313" />
		<path
   class="st10"
   d="M210.4,257h-3.8v3.4h3.5v0.8h-3.5v3.5h3.8v0.8h-4.8v-9.1h4.8V257z"
   id="path315" />
		<path
   class="st10"
   d="M220.1,256.3c2.1,0,3.1,1.1,3.1,2.6c0,1.3-0.7,2.3-2.2,2.6l2.3,3.9h-1.1l-2.3-3.8h-1.7v3.8h-0.9v-9.1H220.1z     M220.1,257.1h-1.8v3.8h1.8c1.5,0,2.2-0.8,2.2-1.9C222.3,257.8,221.7,257.1,220.1,257.1z"
   id="path317" />
		<path
   class="st10"
   d="M236.5,256.3h1l-3.5,9.1h-1l-3.5-9.1h1l3,8.1L236.5,256.3z"
   id="path319" />
		<path
   class="st10"
   d="M244,256.3h0.9v9.1H244V256.3z"
   id="path321" />
		<path
   class="st10"
   d="M256.3,256.2c2,0,3.5,1,4.2,2.8h-1.1c-0.5-1.2-1.6-2-3.1-2c-2,0-3.5,1.5-3.5,3.9c0,2.4,1.5,3.8,3.5,3.8    c1.6,0,2.6-0.8,3.1-1.9h1.1c-0.7,1.7-2.2,2.7-4.2,2.7c-2.5,0-4.5-1.9-4.5-4.6C251.8,258.1,253.7,256.2,256.3,256.2z"
   id="path323" />
		<path
   class="st10"
   d="M272.3,257h-3.8v3.4h3.5v0.8h-3.5v3.5h3.8v0.8h-4.8v-9.1h4.8V257z"
   id="path325" />
		<path
   class="st10"
   d="M282,265.5c-1.8,0-3-1-3.1-2.4h1c0.1,0.8,0.6,1.7,2.1,1.7c1.3,0,2-0.7,2-1.7c0-2.7-5-1-5-4.4    c0-1.4,1.2-2.4,2.9-2.4c1.7,0,2.8,1,2.9,2.2h-1c-0.1-0.6-0.7-1.4-2-1.4c-1.1,0-2,0.6-2,1.6c0,2.6,5,1,5,4.4    C285,264.2,284,265.5,282,265.5z"
   id="path327" />
	</g>
</g>
</svg>
